# xmcd
#
# Track frame offsets: 
#        150
#        24542
#        33512
#        52947
#        65540
#        83392
#        101190
#        114000
#        127422
#        145062
#        160297
#        179317
#        195647
#        214777
#        231970
#        246942
#        268662
#        281247
#
# Disc length: 3985 seconds
#
# Revision: 1
# Processed by: cddbd v1.5.2PL0 Copyright (c) Steve Scherf et al.
# Submitted via: ExactAudioCopy v0.95a5
#
DISCID=060f8f12
DTITLE=Various Artist - Bloomin' -Ready For The New Season!-
DYEAR=2005
DGENRE=Other
TTITLE0=ABBA - Chiquitita
TTITLE1=Tom Jones - It's Not Unusual
TTITLE2=Shanice - I Love Your Smile
TTITLE3=Marvin Gaye - Stubborn Kind Of Fellow
TTITLE4=Lipps, Inc. - Funkytown
TTITLE5=Vanessa Carlton - A Thousand Miles
TTITLE6=Stevie Wonder - A Place In The Sun
TTITLE7=The Jackson 5 - ABC
TTITLE8=Elton John - Daniel
TTITLE9=Boyz II Men - Water Runs Dry
TTITLE10=Tears For Fears - Everybody Wants To Rule The World
TTITLE11=Asia - Don't Cry
TTITLE12=Dexy's Midnight Runners - Come On Eileen
TTITLE13=Swing Out Sisters - Breakout
TTITLE14=Cat Stevens - Morning Has Broken
TTITLE15=The Moody Blues - Your Wildest Dreams
TTITLE16=Diana Ross and The Supremes - You Can't Hurry Love
TTITLE17=Shania Twain - From This Moment On
EXTD=
EXTT0=
EXTT1=
EXTT2=
EXTT3=
EXTT4=
EXTT5=
EXTT6=
EXTT7=
EXTT8=
EXTT9=
EXTT10=
EXTT11=
EXTT12=
EXTT13=
EXTT14=
EXTT15=
EXTT16=
EXTT17=
PLAYORDER=
